<svg width="61" height="61" viewBox="0 0 61 61" fill="none" xmlns="http://www.w3.org/2000/svg">
<path d="M20.9913 54.0019C22.6356 52.3574 23.5802 50.258 23.8251 48.0886C24.1574 45.2019 23.1953 42.2103 20.9913 40.0059C19.6794 38.6938 18.0701 37.819 16.3733 37.4166C13.1372 36.5943 9.55123 37.4516 6.99733 40.0059C5.23059 41.7729 4.26851 44.0297 4.14606 46.3566C4.0586 47.3538 4.14606 48.386 4.40845 49.3832C4.81077 51.0803 5.6854 52.6898 6.99733 54.0019C10.8632 57.8683 17.1255 57.8683 20.9913 54.0019ZM17.7027 45.1844C18.7173 45.1844 19.5569 46.0242 19.5569 47.0389C19.5394 48.0711 18.7173 48.8934 17.6852 48.9109L15.8485 48.8934L15.866 50.6604C15.8485 51.6926 15.0264 52.5148 13.9943 52.5323C12.9623 52.5148 12.1401 51.6926 12.1226 50.6604L12.1401 48.8934L10.3034 48.9109C9.27135 48.8934 8.4492 48.0711 8.43171 47.0389C8.4492 46.5315 8.65911 46.0767 8.99147 45.7443C9.32383 45.4119 9.77863 45.2019 10.2859 45.1844L12.1401 45.1844L12.1401 43.26C12.1401 42.7351 12.35 42.2802 12.6824 41.9478C13.0147 41.6154 13.4695 41.4055 13.9943 41.4055C15.0089 41.4055 15.8485 42.2453 15.8485 43.26L15.8485 45.1844L17.7027 45.1844Z" fill="url(#paint0_linear_1_112)"/>
<path d="M54.8195 35.8794V38.3536C54.8195 39.0216 54.3 39.5659 53.6073 39.5907H49.9955C48.6844 39.5907 47.497 38.6258 47.398 37.3392C47.3238 36.5722 47.6207 35.8547 48.1154 35.3598C48.5607 34.8898 49.1792 34.6423 49.8471 34.6423H53.5825C54.3 34.6671 54.8195 35.2114 54.8195 35.8794Z" fill="url(#paint1_linear_1_112)"/>
<path d="M49.8187 32.0405H52.342C53.7026 32.0405 54.8158 30.9271 54.8158 29.5663V28.4777C54.8158 23.3562 50.6351 19.1748 45.5143 19.1748H17.115C15.0123 19.1748 13.0827 19.8676 11.5242 21.0552C9.27302 22.7376 7.81348 25.4345 7.81348 28.4777V32.8817C7.81348 33.8219 8.803 34.4157 9.69357 34.1188C11.0789 33.6487 12.5384 33.4013 13.998 33.4013C21.4936 33.4013 27.6039 39.5125 27.6039 47.0093C27.6039 48.7907 27.1339 50.7453 26.3918 52.4772C25.996 53.3679 26.6144 54.4318 27.5792 54.4318H45.5143C50.6351 54.4318 54.8158 50.2504 54.8158 45.1289V44.6588C54.8158 43.298 53.7026 42.1846 52.342 42.1846H50.1898C47.8149 42.1846 45.539 40.7249 44.9206 38.4239C44.4258 36.5435 45.0195 34.7126 46.2564 33.525C47.1718 32.5848 48.4334 32.0405 49.8187 32.0405ZM49.6446 31.5457H12.8554C11.8411 31.5457 11 30.7045 11 29.69C11 28.6756 11.8411 27.8344 12.8554 27.8344H49.6446C50.6589 27.8344 51.5 28.6756 51.5 29.69C51.5 30.7045 50.6589 31.5457 49.6446 31.5457Z" fill="url(#paint2_linear_1_112)"/>
<path d="M20.9913 54.0019C22.6356 52.3574 23.5802 50.258 23.8251 48.0886C24.1574 45.2019 23.1953 42.2103 20.9913 40.0059C19.6794 38.6938 18.0701 37.819 16.3733 37.4166C13.1372 36.5943 9.55123 37.4516 6.99733 40.0059C5.23059 41.7729 4.26851 44.0297 4.14606 46.3566C4.0586 47.3538 4.14606 48.386 4.40845 49.3832C4.81077 51.0803 5.6854 52.6898 6.99733 54.0019C10.8632 57.8683 17.1255 57.8683 20.9913 54.0019ZM17.7027 45.1844C18.7173 45.1844 19.5569 46.0242 19.5569 47.0389C19.5394 48.0711 18.7173 48.8934 17.6852 48.9109L15.8485 48.8934L15.866 50.6604C15.8485 51.6926 15.0264 52.5148 13.9943 52.5323C12.9623 52.5148 12.1401 51.6926 12.1226 50.6604L12.1401 48.8934L10.3034 48.9109C9.27135 48.8934 8.4492 48.0711 8.43171 47.0389C8.4492 46.5315 8.65911 46.0767 8.99147 45.7443C9.32383 45.4119 9.77863 45.2019 10.2859 45.1844L12.1401 45.1844L12.1401 43.26C12.1401 42.7351 12.35 42.2802 12.6824 41.9478C13.0147 41.6154 13.4695 41.4055 13.9943 41.4055C15.0089 41.4055 15.8485 42.2453 15.8485 43.26L15.8485 45.1844L17.7027 45.1844Z" fill="url(#paint3_linear_1_112)"/>
<path d="M54.8195 35.8794V38.3536C54.8195 39.0216 54.3 39.5659 53.6073 39.5907H49.9955C48.6844 39.5907 47.497 38.6258 47.398 37.3392C47.3238 36.5722 47.6207 35.8547 48.1154 35.3598C48.5607 34.8898 49.1792 34.6423 49.8471 34.6423H53.5825C54.3 34.6671 54.8195 35.2114 54.8195 35.8794Z" fill="url(#paint4_linear_1_112)"/>
<path d="M49.8187 32.0405H52.342C53.7026 32.0405 54.8158 30.9271 54.8158 29.5663V28.4777C54.8158 23.3562 50.6351 19.1748 45.5143 19.1748H17.115C15.0123 19.1748 13.0827 19.8676 11.5242 21.0552C9.27302 22.7376 7.81348 25.4345 7.81348 28.4777V32.8817C7.81348 33.8219 8.803 34.4157 9.69357 34.1188C11.0789 33.6487 12.5384 33.4013 13.998 33.4013C21.4936 33.4013 27.6039 39.5125 27.6039 47.0093C27.6039 48.7907 27.1339 50.7453 26.3918 52.4772C25.996 53.3679 26.6144 54.4318 27.5792 54.4318H45.5143C50.6351 54.4318 54.8158 50.2504 54.8158 45.1289V44.6588C54.8158 43.298 53.7026 42.1846 52.342 42.1846H50.1898C47.8149 42.1846 45.539 40.7249 44.9206 38.4239C44.4258 36.5435 45.0195 34.7126 46.2564 33.525C47.1718 32.5848 48.4334 32.0405 49.8187 32.0405ZM49.6446 31.5457H12.8554C11.8411 31.5457 11 30.7045 11 29.69C11 28.6756 11.8411 27.8344 12.8554 27.8344H36.856H49.6446C50.6589 27.8344 51.5 28.6756 51.5 29.69C51.5 30.7045 50.6589 31.5457 49.6446 31.5457Z" fill="url(#paint5_linear_1_112)"/>
<defs>
<linearGradient id="paint0_linear_1_112" x1="25.6123" y1="46.0788" x2="1.92596" y2="45.7819" gradientUnits="userSpaceOnUse">
<stop stop-color="white"/>
<stop offset="0.615" stop-color="#9B9B9B" stop-opacity="0.7"/>
<stop offset="1" stop-color="white"/>
</linearGradient>
<linearGradient id="paint1_linear_1_112" x1="47.7721" y1="35.2259" x2="51.5507" y2="41.0458" gradientUnits="userSpaceOnUse">
<stop stop-color="white"/>
<stop offset="0.615" stop-color="#9B9B9B" stop-opacity="0.7"/>
<stop offset="1" stop-color="white"/>
</linearGradient>
<linearGradient id="paint2_linear_1_112" x1="10.2503" y1="23.333" x2="38.3399" y2="61.7312" gradientUnits="userSpaceOnUse">
<stop stop-color="white"/>
<stop offset="0.615" stop-color="#9B9B9B" stop-opacity="0.7"/>
<stop offset="1" stop-color="white"/>
</linearGradient>
<linearGradient id="paint3_linear_1_112" x1="-1.55119" y1="42.2463" x2="22.8414" y2="52.3598" gradientUnits="userSpaceOnUse">
<stop stop-color="#8B5B5B" stop-opacity="0.8"/>
<stop offset="0.917697" stop-opacity="0.1"/>
</linearGradient>
<linearGradient id="paint4_linear_1_112" x1="53.9682" y1="40.706" x2="52.1388" y2="34.0648" gradientUnits="userSpaceOnUse">
<stop stop-color="#8B5B5B" stop-opacity="0.8"/>
<stop offset="0.917697" stop-opacity="0.1"/>
</linearGradient>
<linearGradient id="paint5_linear_1_112" x1="49.4329" y1="62.3786" x2="35.0208" y2="15.9422" gradientUnits="userSpaceOnUse">
<stop stop-color="#8B5B5B" stop-opacity="0.8"/>
<stop offset="0.917697" stop-opacity="0.1"/>
</linearGradient>
</defs>
</svg>
