<svg width="61" height="61" viewBox="0 0 61 61" fill="none" xmlns="http://www.w3.org/2000/svg">
<path d="M17.7913 5.08337H15.2497C7.62467 5.08337 5.08301 9.63296 5.08301 15.25V17.7917V53.375C5.08301 55.4846 7.47217 56.6792 9.14967 55.4084L13.4959 52.155C14.5126 51.3925 15.9359 51.4942 16.8509 52.4092L21.0701 56.6538C22.0613 57.645 23.688 57.645 24.6793 56.6538L28.9493 52.3838C29.8388 51.4942 31.2622 51.3925 32.2534 52.155L36.5997 55.4084C38.2772 56.6538 40.6663 55.4592 40.6663 53.375V10.1667C40.6663 7.37087 42.9538 5.08337 45.7497 5.08337H17.7913ZM28.5934 34.948H17.1559C16.1138 34.948 15.2497 34.0838 15.2497 33.0417C15.2497 31.9996 16.1138 31.1355 17.1559 31.1355H28.5934C29.6355 31.1355 30.4997 31.9996 30.4997 33.0417C30.4997 34.0838 29.6355 34.948 28.5934 34.948ZM30.4997 24.7813H15.2497C14.2076 24.7813 13.3434 23.9171 13.3434 22.875C13.3434 21.833 14.2076 20.9688 15.2497 20.9688H30.4997C31.5418 20.9688 32.4059 21.833 32.4059 22.875C32.4059 23.9171 31.5418 24.7813 30.4997 24.7813Z" fill="url(#paint0_linear_1_148)"/>
<path d="M45.7757 5.08337V8.89587C47.4532 8.89587 49.0545 9.58212 50.2237 10.7259C51.4437 11.9713 52.1045 13.5725 52.1045 15.25V21.4009C52.1045 23.2817 51.2657 24.1459 49.3595 24.1459H44.4795V10.1921C44.4795 9.48046 45.0641 8.89587 45.7757 8.89587V5.08337ZM45.7757 5.08337C42.9545 5.08337 40.667 7.37087 40.667 10.1921V27.9584H49.3595C53.3753 27.9584 55.917 25.4167 55.917 21.4009V15.25C55.917 12.4542 54.7732 9.91254 52.9432 8.05712C51.0878 6.22712 48.5716 5.10879 45.7757 5.08337C45.8012 5.08337 45.7757 5.08337 45.7757 5.08337Z" fill="url(#paint1_linear_1_148)"/>
<path d="M17.7913 5.08337H15.2497C7.62467 5.08337 5.08301 9.63296 5.08301 15.25V17.7917V53.375C5.08301 55.4846 7.47217 56.6792 9.14967 55.4084L13.4959 52.155C14.5126 51.3925 15.9359 51.4942 16.8509 52.4092L21.0701 56.6538C22.0613 57.645 23.688 57.645 24.6793 56.6538L28.9493 52.3838C29.8388 51.4942 31.2622 51.3925 32.2534 52.155L36.5997 55.4084C38.2772 56.6538 40.6663 55.4592 40.6663 53.375V10.1667C40.6663 7.37087 42.9538 5.08337 45.7497 5.08337H17.7913ZM28.5934 34.948H17.1559C16.1138 34.948 15.2497 34.0838 15.2497 33.0417C15.2497 31.9996 16.1138 31.1355 17.1559 31.1355H28.5934C29.6355 31.1355 30.4997 31.9996 30.4997 33.0417C30.4997 34.0838 29.6355 34.948 28.5934 34.948ZM30.4997 24.7813H15.2497C14.2076 24.7813 13.3434 23.9171 13.3434 22.875C13.3434 21.833 14.2076 20.9688 15.2497 20.9688H30.4997C31.5418 20.9688 32.4059 21.833 32.4059 22.875C32.4059 23.9171 31.5418 24.7813 30.4997 24.7813Z" fill="url(#paint2_linear_1_148)"/>
<path d="M45.7757 5.08337V8.89587C47.4532 8.89587 49.0545 9.58212 50.2237 10.7259C51.4437 11.9713 52.1045 13.5725 52.1045 15.25V21.4009C52.1045 23.2817 51.2657 24.1459 49.3595 24.1459H44.4795V10.1921C44.4795 9.48046 45.0641 8.89587 45.7757 8.89587V5.08337ZM45.7757 5.08337C42.9545 5.08337 40.667 7.37087 40.667 10.1921V27.9584H49.3595C53.3753 27.9584 55.917 25.4167 55.917 21.4009V15.25C55.917 12.4542 54.7732 9.91254 52.9432 8.05712C51.0878 6.22712 48.5716 5.10879 45.7757 5.08337C45.8012 5.08337 45.7757 5.08337 45.7757 5.08337Z" fill="url(#paint3_linear_1_148)"/>
<defs>
<linearGradient id="paint0_linear_1_148" x1="7.19139" y1="11.2533" x2="49.8226" y2="45.2346" gradientUnits="userSpaceOnUse">
<stop stop-color="white"/>
<stop offset="0.615" stop-color="#9B9B9B" stop-opacity="0.7"/>
<stop offset="1" stop-color="white"/>
</linearGradient>
<linearGradient id="paint1_linear_1_148" x1="41.4576" y1="7.78126" x2="59.2755" y2="19.9615" gradientUnits="userSpaceOnUse">
<stop stop-color="white"/>
<stop offset="0.615" stop-color="#9B9B9B" stop-opacity="0.7"/>
<stop offset="1" stop-color="white"/>
</linearGradient>
<linearGradient id="paint2_linear_1_148" x1="41.0923" y1="69.1886" x2="9.76219" y2="10.3256" gradientUnits="userSpaceOnUse">
<stop stop-color="#8B5B5B" stop-opacity="0.8"/>
<stop offset="0.917697" stop-opacity="0.1"/>
</linearGradient>
<linearGradient id="paint3_linear_1_148" x1="54.1705" y1="33.1143" x2="39.3712" y2="9.26881" gradientUnits="userSpaceOnUse">
<stop stop-color="#8B5B5B" stop-opacity="0.8"/>
<stop offset="0.917697" stop-opacity="0.1"/>
</linearGradient>
</defs>
</svg>
