<svg width="61" height="61" viewBox="0 0 61 61" fill="none" xmlns="http://www.w3.org/2000/svg">
<path d="M5.08301 29.1275V41.8359C5.08301 47.6563 9.78509 52.3584 15.6055 52.3584H45.3684C51.1888 52.3584 55.9163 47.6309 55.9163 41.8105V29.1275C55.9163 27.4246 54.5438 26.0521 52.8409 26.0521H8.15842C6.45551 26.0521 5.08301 27.4246 5.08301 29.1275ZM20.333 43.8438H15.2497C14.2076 43.8438 13.3434 42.9796 13.3434 41.9375C13.3434 40.8955 14.2076 40.0313 15.2497 40.0313H20.333C21.3751 40.0313 22.2393 40.8955 22.2393 41.9375C22.2393 42.9796 21.3751 43.8438 20.333 43.8438ZM36.8538 43.8438H26.6872C25.6451 43.8438 24.7809 42.9796 24.7809 41.9375C24.7809 40.8955 25.6451 40.0313 26.6872 40.0313H36.8538C37.8959 40.0313 38.7601 40.8955 38.7601 41.9375C38.7601 42.9796 37.8959 43.8438 36.8538 43.8438Z" fill="url(#paint0_linear_1_91)"/>
<path d="M34.3122 11.7171V19.1642C34.3122 20.8671 32.9397 22.2396 31.2368 22.2396H8.15842C6.43009 22.2396 5.08301 20.8163 5.08301 19.1134C5.10842 16.2413 6.25217 13.6234 8.15842 11.7171C10.0647 9.81089 12.708 8.64172 15.6055 8.64172H31.2368C32.9397 8.64172 34.3122 10.0142 34.3122 11.7171Z" fill="url(#paint1_linear_1_91)"/>
<path d="M50.7571 5.08337H43.2846C40.0567 5.08337 38.125 7.01504 38.125 10.243V17.7155C38.125 20.9434 40.0567 22.875 43.2846 22.875H50.7571C53.985 22.875 55.9167 20.9434 55.9167 17.7155V10.243C55.9167 7.01504 53.985 5.08337 50.7571 5.08337ZM52.4346 11.3105L46.4108 18.3509C46.1821 18.6305 45.8262 18.8084 45.4704 18.8084C45.445 18.8084 45.445 18.8084 45.4196 18.8084C45.0638 18.8084 44.7333 18.6813 44.4792 18.4271L41.6833 15.6821C41.175 15.1738 41.175 14.335 41.6833 13.8267C42.1917 13.3184 43.0304 13.293 43.5387 13.8267L45.3179 15.5805L50.4012 9.63296C50.8842 9.07379 51.6975 9.02296 52.2567 9.48046C52.8412 9.93796 52.8921 10.7767 52.4346 11.3105Z" fill="url(#paint2_linear_1_91)"/>
<path d="M5.08301 29.1275V41.8359C5.08301 47.6563 9.78509 52.3584 15.6055 52.3584H45.3684C51.1888 52.3584 55.9163 47.6309 55.9163 41.8105V29.1275C55.9163 27.4246 54.5438 26.0521 52.8409 26.0521H8.15842C6.45551 26.0521 5.08301 27.4246 5.08301 29.1275ZM20.333 43.8438H15.2497C14.2076 43.8438 13.3434 42.9796 13.3434 41.9375C13.3434 40.8955 14.2076 40.0313 15.2497 40.0313H20.333C21.3751 40.0313 22.2393 40.8955 22.2393 41.9375C22.2393 42.9796 21.3751 43.8438 20.333 43.8438ZM36.8538 43.8438H26.6872C25.6451 43.8438 24.7809 42.9796 24.7809 41.9375C24.7809 40.8955 25.6451 40.0313 26.6872 40.0313H36.8538C37.8959 40.0313 38.7601 40.8955 38.7601 41.9375C38.7601 42.9796 37.8959 43.8438 36.8538 43.8438Z" fill="url(#paint3_linear_1_91)"/>
<path d="M34.3122 11.7171V19.1642C34.3122 20.8671 32.9397 22.2396 31.2368 22.2396H8.15842C6.43009 22.2396 5.08301 20.8163 5.08301 19.1134C5.10842 16.2413 6.25217 13.6234 8.15842 11.7171C10.0647 9.81089 12.708 8.64172 15.6055 8.64172H31.2368C32.9397 8.64172 34.3122 10.0142 34.3122 11.7171Z" fill="url(#paint4_linear_1_91)"/>
<path d="M50.7571 5.08337H43.2846C40.0567 5.08337 38.125 7.01504 38.125 10.243V17.7155C38.125 20.9434 40.0567 22.875 43.2846 22.875H50.7571C53.985 22.875 55.9167 20.9434 55.9167 17.7155V10.243C55.9167 7.01504 53.985 5.08337 50.7571 5.08337ZM52.4346 11.3105L46.4108 18.3509C46.1821 18.6305 45.8262 18.8084 45.4704 18.8084C45.445 18.8084 45.445 18.8084 45.4196 18.8084C45.0638 18.8084 44.7333 18.6813 44.4792 18.4271L41.6833 15.6821C41.175 15.1738 41.175 14.335 41.6833 13.8267C42.1917 13.3184 43.0304 13.293 43.5387 13.8267L45.3179 15.5805L50.4012 9.63296C50.8842 9.07379 51.6975 9.02296 52.2567 9.48046C52.8412 9.93796 52.8921 10.7767 52.4346 11.3105Z" fill="url(#paint5_linear_1_91)"/>
<defs>
<linearGradient id="paint0_linear_1_91" x1="7.71848" y1="29.1547" x2="25.4094" y2="64.2082" gradientUnits="userSpaceOnUse">
<stop stop-color="white"/>
<stop offset="0.615" stop-color="#9B9B9B" stop-opacity="0.7"/>
<stop offset="1" stop-color="white"/>
</linearGradient>
<linearGradient id="paint1_linear_1_91" x1="6.5984" y1="10.2455" x2="15.1523" y2="29.0992" gradientUnits="userSpaceOnUse">
<stop stop-color="white"/>
<stop offset="0.615" stop-color="#9B9B9B" stop-opacity="0.7"/>
<stop offset="1" stop-color="white"/>
</linearGradient>
<linearGradient id="paint2_linear_1_91" x1="39.0474" y1="7.18173" x2="53.9158" y2="22.4277" gradientUnits="userSpaceOnUse">
<stop stop-color="white"/>
<stop offset="0.615" stop-color="#9B9B9B" stop-opacity="0.7"/>
<stop offset="1" stop-color="white"/>
</linearGradient>
<linearGradient id="paint3_linear_1_91" x1="50.0946" y1="58.2877" x2="42.318" y2="21.9679" gradientUnits="userSpaceOnUse">
<stop stop-color="#8B5B5B" stop-opacity="0.8"/>
<stop offset="0.917697" stop-opacity="0.1"/>
</linearGradient>
<linearGradient id="paint4_linear_1_91" x1="30.9647" y1="25.3046" x2="27.3203" y2="6.37133" gradientUnits="userSpaceOnUse">
<stop stop-color="#8B5B5B" stop-opacity="0.8"/>
<stop offset="0.917697" stop-opacity="0.1"/>
</linearGradient>
<linearGradient id="paint5_linear_1_91" x1="53.8791" y1="26.8852" x2="44.8033" y2="4.95006" gradientUnits="userSpaceOnUse">
<stop stop-color="#8B5B5B" stop-opacity="0.8"/>
<stop offset="0.917697" stop-opacity="0.1"/>
</linearGradient>
</defs>
</svg>
