<svg width="61" height="61" viewBox="0 0 61 61" fill="none" xmlns="http://www.w3.org/2000/svg">
<path fill-rule="evenodd" clip-rule="evenodd" d="M41.4297 13.8262C42.4463 12.7844 44.124 12.7843 45.166 13.8262L52.918 21.5791C56.5015 25.1375 56.5016 30.9066 52.8926 34.4649L35.2773 52.1045H54.0098C55.0518 52.1045 55.916 52.9687 55.916 54.0108C55.9158 55.0527 55.0517 55.917 54.0098 55.917H6.98926C5.94732 55.917 5.08325 55.0527 5.08301 54.0108C5.08301 52.9687 5.94717 52.1045 6.98926 52.1045H21.3525L14.1318 44.8604C13.0899 43.8184 13.0899 42.1407 14.1318 41.1241L41.4297 13.8262ZM32.4326 42.1915C31.7972 41.5815 30.7291 41.5815 30.1191 42.1915L27.0186 45.292C26.3831 45.9529 26.3831 46.9955 27.0186 47.6309C27.6793 48.2661 28.7211 48.266 29.3564 47.6309L32.4326 44.5303C33.0679 43.9204 33.0678 42.8269 32.4326 42.1915ZM42.5225 32.1016C41.887 31.4916 40.82 31.4916 40.21 32.1016L33.9824 38.3282C33.347 38.989 33.347 40.0316 33.9824 40.667C34.6433 41.2769 35.6859 41.277 36.3213 40.667L42.5225 34.4395C43.1578 33.8041 43.1577 32.7625 42.5225 32.1016ZM26.2295 7.77739C29.7878 4.21906 35.5325 4.21906 39.0908 7.77739C40.1327 8.76866 40.1328 10.4717 39.1162 11.4883L11.8184 38.7852C10.7763 39.8273 9.0987 39.8273 8.08203 38.7852H8.05664C4.52411 35.2269 4.52401 29.4831 8.05664 25.9502L26.2295 7.77739Z" fill="url(#paint0_linear_1_129)"/>
<path fill-rule="evenodd" clip-rule="evenodd" d="M41.4297 13.8262C42.4463 12.7844 44.124 12.7843 45.166 13.8262L52.918 21.5791C56.5015 25.1375 56.5016 30.9066 52.8926 34.4649L35.2773 52.1045H54.0098C55.0518 52.1045 55.916 52.9687 55.916 54.0108C55.9158 55.0527 55.0517 55.917 54.0098 55.917H6.98926C5.94732 55.917 5.08325 55.0527 5.08301 54.0108C5.08301 52.9687 5.94717 52.1045 6.98926 52.1045H21.3525L14.1318 44.8604C13.0899 43.8184 13.0899 42.1407 14.1318 41.1241L41.4297 13.8262ZM32.4326 42.1915C31.7972 41.5815 30.7291 41.5815 30.1191 42.1915L27.0186 45.292C26.3831 45.9529 26.3831 46.9955 27.0186 47.6309C27.6793 48.2661 28.7211 48.266 29.3564 47.6309L32.4326 44.5303C33.0679 43.9204 33.0678 42.8269 32.4326 42.1915ZM42.5225 32.1016C41.887 31.4916 40.82 31.4916 40.21 32.1016L33.9824 38.3282C33.347 38.989 33.347 40.0316 33.9824 40.667C34.6433 41.2769 35.6859 41.277 36.3213 40.667L42.5225 34.4395C43.1578 33.8041 43.1577 32.7625 42.5225 32.1016ZM26.2295 7.77739C29.7878 4.21906 35.5325 4.21906 39.0908 7.77739C40.1327 8.76866 40.1328 10.4717 39.1162 11.4883L11.8184 38.7852C10.7763 39.8273 9.0987 39.8273 8.08203 38.7852H8.05664C4.52411 35.2269 4.52401 29.4831 8.05664 25.9502L26.2295 7.77739Z" fill="url(#paint1_linear_1_129)"/>
<defs>
<linearGradient id="paint0_linear_1_129" x1="7.71846" y1="11.101" x2="50.1782" y2="54.6601" gradientUnits="userSpaceOnUse">
<stop stop-color="white"/>
<stop offset="0.615" stop-color="#9B9B9B" stop-opacity="0.7"/>
<stop offset="1" stop-color="white"/>
</linearGradient>
<linearGradient id="paint1_linear_1_129" x1="50.0944" y1="67.3691" x2="24.1853" y2="4.71906" gradientUnits="userSpaceOnUse">
<stop stop-color="#8B5B5B" stop-opacity="0.8"/>
<stop offset="0.917697" stop-opacity="0.1"/>
</linearGradient>
</defs>
</svg>
