<svg width="61" height="61" viewBox="0 0 61 61" fill="none" xmlns="http://www.w3.org/2000/svg">
<path d="M27.3232 32.4571C27.3232 30.2712 28.5178 28.3142 30.4495 27.3483L35.5328 24.7558C36.3462 24.3492 37.2357 24.1458 38.1253 24.1458H45.1149V12.7083C45.1149 8.845 41.9887 5.71875 38.1253 5.71875H15.2503C11.387 5.71875 8.26074 8.845 8.26074 12.7083V45.75C8.26074 49.6133 11.387 52.7396 15.2503 52.7396H32.6862C29.3057 49.105 27.3232 44.2504 27.3232 39.0908V32.4571ZM15.2503 13.3437H33.042C34.0942 13.3437 34.9482 14.1977 34.9482 15.25C34.9482 16.3022 34.0942 17.1562 33.042 17.1562H15.2503C14.1981 17.1562 13.3441 16.3022 13.3441 15.25C13.3441 14.1977 14.1981 13.3437 15.2503 13.3437ZM22.8753 32.4062H15.2503C14.1981 32.4062 13.3441 31.5522 13.3441 30.5C13.3441 29.4477 14.1981 28.5937 15.2503 28.5937H22.8753C23.9276 28.5937 24.7816 29.4477 24.7816 30.5C24.7816 31.5522 23.9276 32.4062 22.8753 32.4062ZM25.417 24.7812H15.2503C14.1981 24.7812 13.3441 23.9272 13.3441 22.875C13.3441 21.8227 14.1981 20.9687 15.2503 20.9687H25.417C26.4692 20.9687 27.3232 21.8227 27.3232 22.875C27.3232 23.9272 26.4692 24.7812 25.417 24.7812ZM54.2395 30.744L49.1562 28.1642C48.8893 28.0295 48.5919 27.9583 48.292 27.9583H38.1253C37.8254 27.9583 37.5306 28.0295 37.2612 28.1642L32.1778 30.744C31.5373 31.0693 31.1357 31.7276 31.1357 32.4444V39.0985C31.1357 45.8517 35.3549 51.9847 41.643 54.3612C42.1462 54.5518 42.6749 54.6458 43.2061 54.6458C43.7373 54.6458 44.2711 54.5492 44.7819 54.3586C51.0624 51.9847 55.2816 45.8517 55.2816 39.0985V32.4444C55.2816 31.7276 54.88 31.0693 54.2395 30.744ZM48.4445 38.7299L43.8695 43.8514C43.506 44.2555 42.9901 44.4868 42.4462 44.4868C41.9022 44.4868 41.3863 44.2555 41.0228 43.8514L37.9728 40.4354C37.2739 39.65 37.3399 38.4452 38.1253 37.7437C38.9132 37.0448 40.1129 37.1083 40.8195 37.8962L42.4487 39.7186L45.6004 36.1882C46.2993 35.4029 47.5041 35.3368 48.2945 36.0357C49.0799 36.7372 49.146 37.942 48.447 38.7274L48.4445 38.7299Z" fill="url(#paint0_linear_1_62)"/>
<path d="M27.3232 32.4571C27.3232 30.2712 28.5178 28.3142 30.4495 27.3483L35.5328 24.7558C36.3462 24.3492 37.2357 24.1458 38.1253 24.1458H45.1149V12.7083C45.1149 8.845 41.9887 5.71875 38.1253 5.71875H15.2503C11.387 5.71875 8.26074 8.845 8.26074 12.7083V45.75C8.26074 49.6133 11.387 52.7396 15.2503 52.7396H32.6862C29.3057 49.105 27.3232 44.2504 27.3232 39.0908V32.4571ZM15.2503 13.3437H33.042C34.0942 13.3437 34.9482 14.1977 34.9482 15.25C34.9482 16.3022 34.0942 17.1562 33.042 17.1562H15.2503C14.1981 17.1562 13.3441 16.3022 13.3441 15.25C13.3441 14.1977 14.1981 13.3437 15.2503 13.3437ZM22.8753 32.4062H15.2503C14.1981 32.4062 13.3441 31.5522 13.3441 30.5C13.3441 29.4477 14.1981 28.5937 15.2503 28.5937H22.8753C23.9276 28.5937 24.7816 29.4477 24.7816 30.5C24.7816 31.5522 23.9276 32.4062 22.8753 32.4062ZM25.417 24.7812H15.2503C14.1981 24.7812 13.3441 23.9272 13.3441 22.875C13.3441 21.8227 14.1981 20.9687 15.2503 20.9687H25.417C26.4692 20.9687 27.3232 21.8227 27.3232 22.875C27.3232 23.9272 26.4692 24.7812 25.417 24.7812ZM54.2395 30.744L49.1562 28.1642C48.8893 28.0295 48.5919 27.9583 48.292 27.9583H38.1253C37.8254 27.9583 37.5306 28.0295 37.2612 28.1642L32.1778 30.744C31.5373 31.0693 31.1357 31.7276 31.1357 32.4444V39.0985C31.1357 45.8517 35.3549 51.9847 41.643 54.3612C42.1462 54.5518 42.6749 54.6458 43.2061 54.6458C43.7373 54.6458 44.2711 54.5492 44.7819 54.3586C51.0624 51.9847 55.2816 45.8517 55.2816 39.0985V32.4444C55.2816 31.7276 54.88 31.0693 54.2395 30.744ZM48.4445 38.7299L43.8695 43.8514C43.506 44.2555 42.9901 44.4868 42.4462 44.4868C41.9022 44.4868 41.3863 44.2555 41.0228 43.8514L37.9728 40.4354C37.2739 39.65 37.3399 38.4452 38.1253 37.7437C38.9132 37.0448 40.1129 37.1083 40.8195 37.8962L42.4487 39.7186L45.6004 36.1882C46.2993 35.4029 47.5041 35.3368 48.2945 36.0357C49.0799 36.7372 49.146 37.942 48.447 38.7274L48.4445 38.7299Z" fill="url(#paint1_linear_1_62)"/>
<defs>
<linearGradient id="paint0_linear_1_62" x1="10.6986" y1="11.4892" x2="51.5951" y2="51.7905" gradientUnits="userSpaceOnUse">
<stop stop-color="white"/>
<stop offset="0.615" stop-color="#9B9B9B" stop-opacity="0.7"/>
<stop offset="1" stop-color="white"/>
</linearGradient>
<linearGradient id="paint1_linear_1_62" x1="49.8965" y1="65.6738" x2="24.2367" y2="6.07281" gradientUnits="userSpaceOnUse">
<stop stop-color="#8B5B5B" stop-opacity="0.8"/>
<stop offset="0.917697" stop-opacity="0.1"/>
</linearGradient>
</defs>
</svg>
