<svg width="64" height="64" viewBox="0 0 64 64" fill="none" xmlns="http://www.w3.org/2000/svg">
<path fill-rule="evenodd" clip-rule="evenodd" d="M28.4172 41.2054C29.2022 41.7109 29.8595 42.0992 30.3253 42.3636C30.3663 42.3868 30.4072 42.4102 30.4483 42.4337C30.9569 42.7247 31.4774 43.0226 32.0804 42.9984C32.6063 42.9776 33.0777 42.7065 33.5273 42.4479C33.5767 42.4195 33.6258 42.3913 33.6747 42.3636C34.1405 42.0992 34.7978 41.7109 35.5828 41.2054C37.1488 40.197 39.2437 38.709 41.3472 36.7919C45.4907 33.0157 50 27.2662 50 20C50 10.0589 41.9411 2 32 2C22.0589 2 14 10.0589 14 20C14 27.2662 18.5093 33.0157 22.6528 36.7919C24.7563 38.709 26.8512 40.197 28.4172 41.2054ZM24 20C24 15.5817 27.5817 12 32 12C36.4183 12 40 15.5817 40 20C40 24.4183 36.4183 28 32 28C27.5817 28 24 24.4183 24 20Z" fill="url(#paint0_linear_1_70)"/>
<path d="M8 39C4.68629 39 2 41.6863 2 45C2 48.3137 4.68629 51 8 51C11.3137 51 14 48.3137 14 45C14 41.6863 11.3137 39 8 39Z" fill="url(#paint1_linear_1_70)"/>
<path d="M56 39C52.6863 39 50 41.6863 50 45C50 48.3137 52.6863 51 56 51C59.3137 51 62 48.3137 62 45C62 41.6863 59.3137 39 56 39Z" fill="url(#paint2_linear_1_70)"/>
<path d="M32 44C27.5817 44 24 47.5817 24 52C24 56.4183 27.5817 60 32 60C36.4183 60 40 56.4183 40 52C40 47.5817 36.4183 44 32 44Z" fill="url(#paint3_linear_1_70)"/>
<path d="M15.731 47.0658C15.3712 48.4157 14.6672 49.6252 13.7188 50.5946L22.1271 53.5976C22.0436 53.0774 22.0002 52.5438 22.0002 52C22.0002 51.1095 22.1167 50.2462 22.3351 49.4244L15.731 47.0658Z" fill="url(#paint4_linear_1_70)"/>
<path d="M41.8729 53.5976L50.2814 50.5946C49.3329 49.6253 48.6289 48.4158 48.2691 47.0658L41.665 49.4244C41.8834 50.2462 41.9998 51.1095 41.9998 52C41.9998 52.5438 41.9564 53.0774 41.8729 53.5976Z" fill="url(#paint5_linear_1_70)"/>
<path fill-rule="evenodd" clip-rule="evenodd" d="M28.4172 41.2054C29.2022 41.7109 29.8595 42.0992 30.3253 42.3636C30.3663 42.3868 30.4072 42.4102 30.4483 42.4337C30.9569 42.7247 31.4774 43.0226 32.0804 42.9984C32.6063 42.9776 33.0777 42.7065 33.5273 42.4479C33.5767 42.4195 33.6258 42.3913 33.6747 42.3636C34.1405 42.0992 34.7978 41.7109 35.5828 41.2054C37.1488 40.197 39.2437 38.709 41.3472 36.7919C45.4907 33.0157 50 27.2662 50 20C50 10.0589 41.9411 2 32 2C22.0589 2 14 10.0589 14 20C14 27.2662 18.5093 33.0157 22.6528 36.7919C24.7563 38.709 26.8512 40.197 28.4172 41.2054ZM24 20C24 15.5817 27.5817 12 32 12C36.4183 12 40 15.5817 40 20C40 24.4183 36.4183 28 32 28C27.5817 28 24 24.4183 24 20Z" fill="url(#paint6_linear_1_70)"/>
<path d="M8 39C4.68629 39 2 41.6863 2 45C2 48.3137 4.68629 51 8 51C11.3137 51 14 48.3137 14 45C14 41.6863 11.3137 39 8 39Z" fill="url(#paint7_linear_1_70)"/>
<path d="M56 39C52.6863 39 50 41.6863 50 45C50 48.3137 52.6863 51 56 51C59.3137 51 62 48.3137 62 45C62 41.6863 59.3137 39 56 39Z" fill="url(#paint8_linear_1_70)"/>
<path d="M32 44C27.5817 44 24 47.5817 24 52C24 56.4183 27.5817 60 32 60C36.4183 60 40 56.4183 40 52C40 47.5817 36.4183 44 32 44Z" fill="url(#paint9_linear_1_70)"/>
<path d="M15.731 47.0658C15.3712 48.4157 14.6672 49.6252 13.7188 50.5946L22.1271 53.5976C22.0436 53.0774 22.0002 52.5438 22.0002 52C22.0002 51.1095 22.1167 50.2462 22.3351 49.4244L15.731 47.0658Z" fill="url(#paint10_linear_1_70)"/>
<path d="M41.8729 53.5976L50.2814 50.5946C49.3329 49.6253 48.6289 48.4158 48.2691 47.0658L41.665 49.4244C41.8834 50.2462 41.9998 51.1095 41.9998 52C41.9998 52.5438 41.9564 53.0774 41.8729 53.5976Z" fill="url(#paint11_linear_1_70)"/>
<defs>
<linearGradient id="paint0_linear_1_70" x1="15.8664" y1="6.83552" x2="49.9525" y2="37.525" gradientUnits="userSpaceOnUse">
<stop stop-color="white"/>
<stop offset="0.615" stop-color="#9B9B9B" stop-opacity="0.7"/>
<stop offset="1" stop-color="white"/>
</linearGradient>
<linearGradient id="paint1_linear_1_70" x1="2.62214" y1="40.4153" x2="12.6505" y2="50.6983" gradientUnits="userSpaceOnUse">
<stop stop-color="white"/>
<stop offset="0.615" stop-color="#9B9B9B" stop-opacity="0.7"/>
<stop offset="1" stop-color="white"/>
</linearGradient>
<linearGradient id="paint2_linear_1_70" x1="50.6221" y1="40.4153" x2="60.6505" y2="50.6983" gradientUnits="userSpaceOnUse">
<stop stop-color="white"/>
<stop offset="0.615" stop-color="#9B9B9B" stop-opacity="0.7"/>
<stop offset="1" stop-color="white"/>
</linearGradient>
<linearGradient id="paint3_linear_1_70" x1="24.8295" y1="45.887" x2="38.2006" y2="59.5977" gradientUnits="userSpaceOnUse">
<stop stop-color="white"/>
<stop offset="0.615" stop-color="#9B9B9B" stop-opacity="0.7"/>
<stop offset="1" stop-color="white"/>
</linearGradient>
<linearGradient id="paint4_linear_1_70" x1="14.1655" y1="47.8362" x2="19.3858" y2="54.8974" gradientUnits="userSpaceOnUse">
<stop stop-color="white"/>
<stop offset="0.615" stop-color="#9B9B9B" stop-opacity="0.7"/>
<stop offset="1" stop-color="white"/>
</linearGradient>
<linearGradient id="paint5_linear_1_70" x1="42.1117" y1="47.8362" x2="47.332" y2="54.8974" gradientUnits="userSpaceOnUse">
<stop stop-color="white"/>
<stop offset="0.615" stop-color="#9B9B9B" stop-opacity="0.7"/>
<stop offset="1" stop-color="white"/>
</linearGradient>
<linearGradient id="paint6_linear_1_70" x1="45.8771" y1="52.241" x2="23.0491" y2="3.79625" gradientUnits="userSpaceOnUse">
<stop stop-color="#8B5B5B" stop-opacity="0.8"/>
<stop offset="0.917697" stop-opacity="0.1"/>
</linearGradient>
<linearGradient id="paint7_linear_1_70" x1="12.6257" y1="53.7048" x2="6.50435" y2="38.9101" gradientUnits="userSpaceOnUse">
<stop stop-color="#8B5B5B" stop-opacity="0.8"/>
<stop offset="0.917697" stop-opacity="0.1"/>
</linearGradient>
<linearGradient id="paint8_linear_1_70" x1="60.6257" y1="53.7048" x2="54.5044" y2="38.9101" gradientUnits="userSpaceOnUse">
<stop stop-color="#8B5B5B" stop-opacity="0.8"/>
<stop offset="0.917697" stop-opacity="0.1"/>
</linearGradient>
<linearGradient id="paint9_linear_1_70" x1="38.1676" y1="63.6063" x2="30.0058" y2="43.8801" gradientUnits="userSpaceOnUse">
<stop stop-color="#8B5B5B" stop-opacity="0.8"/>
<stop offset="0.917697" stop-opacity="0.1"/>
</linearGradient>
<linearGradient id="paint10_linear_1_70" x1="21.3483" y1="55.0698" x2="18.655" y2="46.483" gradientUnits="userSpaceOnUse">
<stop stop-color="#8B5B5B" stop-opacity="0.8"/>
<stop offset="0.917697" stop-opacity="0.1"/>
</linearGradient>
<linearGradient id="paint11_linear_1_70" x1="49.2946" y1="55.0698" x2="46.6013" y2="46.483" gradientUnits="userSpaceOnUse">
<stop stop-color="#8B5B5B" stop-opacity="0.8"/>
<stop offset="0.917697" stop-opacity="0.1"/>
</linearGradient>
</defs>
</svg>
